<mxfile host="app.diagrams.net" modified="2024-01-15T22:23:03.514Z" agent="Mozilla/5.0 (X11; Ubuntu; Linux x86_64; rv:121.0) Gecko/20100101 Firefox/121.0" etag="CF8Gm43qA8_YgOwqOuc7" version="22.1.18" type="github">
  <diagram name="Page-1" id="b33cb84f-bf7a-9ccf-f142-242d16432e5d">
    <mxGraphModel dx="1432" dy="797" grid="1" gridSize="10" guides="1" tooltips="1" connect="1" arrows="1" fold="1" page="1" pageScale="1.5" pageWidth="1169" pageHeight="826" background="none" math="0" shadow="0">
      <root>
        <mxCell id="0" style=";html=1;" />
        <mxCell id="1" style=";html=1;" parent="0" />
        <mxCell id="2a5a01dd2e413fbf-1" value="" style="ellipse;whiteSpace=wrap;html=1;rounded=0;shadow=0;strokeWidth=1;fillColor=none;fontSize=24;align=right" parent="1" vertex="1">
          <mxGeometry x="270" y="250" width="500" height="230" as="geometry" />
        </mxCell>
        <mxCell id="2a5a01dd2e413fbf-2" value="" style="ellipse;whiteSpace=wrap;html=1;rounded=0;shadow=0;strokeWidth=1;fillColor=none;fontSize=24;align=right" parent="1" vertex="1">
          <mxGeometry x="170" y="330" width="330" height="490" as="geometry" />
        </mxCell>
        <mxCell id="2a5a01dd2e413fbf-3" value="" style="ellipse;whiteSpace=wrap;html=1;rounded=0;shadow=0;strokeWidth=1;fillColor=none;fontSize=24;align=right" parent="1" vertex="1">
          <mxGeometry x="290" y="680" width="380" height="180" as="geometry" />
        </mxCell>
        <mxCell id="2a5a01dd2e413fbf-4" value="" style="ellipse;whiteSpace=wrap;html=1;rounded=0;shadow=0;strokeWidth=1;fillColor=none;fontSize=24;align=right" parent="1" vertex="1">
          <mxGeometry x="704" y="890" width="346" height="210" as="geometry" />
        </mxCell>
        <mxCell id="2a5a01dd2e413fbf-5" value="" style="ellipse;whiteSpace=wrap;html=1;rounded=0;shadow=0;strokeWidth=1;fillColor=none;fontSize=24;align=right" parent="1" vertex="1">
          <mxGeometry x="580" y="880" width="360" height="230" as="geometry" />
        </mxCell>
        <mxCell id="2a5a01dd2e413fbf-6" value="" style="ellipse;whiteSpace=wrap;html=1;rounded=0;shadow=0;strokeWidth=1;fillColor=none;fontSize=24;align=right" parent="1" vertex="1">
          <mxGeometry x="1070" y="890" width="290" height="200" as="geometry" />
        </mxCell>
        <mxCell id="2a5a01dd2e413fbf-7" value="" style="ellipse;whiteSpace=wrap;html=1;rounded=0;shadow=0;strokeWidth=1;fillColor=none;fontSize=24;align=right" parent="1" vertex="1">
          <mxGeometry x="1175" y="430" width="350" height="390" as="geometry" />
        </mxCell>
        <mxCell id="2a5a01dd2e413fbf-8" value="" style="ellipse;whiteSpace=wrap;html=1;rounded=0;shadow=0;strokeWidth=1;fillColor=none;fontSize=24;align=right" parent="1" vertex="1">
          <mxGeometry x="955" y="300" width="380" height="370" as="geometry" />
        </mxCell>
        <mxCell id="2a5a01dd2e413fbf-9" value="" style="ellipse;whiteSpace=wrap;html=1;rounded=0;shadow=0;strokeWidth=1;fillColor=none;fontSize=24;align=right" parent="1" vertex="1">
          <mxGeometry x="1185" y="160" width="340" height="360" as="geometry" />
        </mxCell>
        <mxCell id="2a5a01dd2e413fbf-10" value="" style="ellipse;whiteSpace=wrap;html=1;rounded=0;shadow=0;strokeWidth=1;fillColor=none;fontSize=24;align=right" parent="1" vertex="1">
          <mxGeometry x="1100" y="935" width="100" height="120" as="geometry" />
        </mxCell>
        <mxCell id="2a5a01dd2e413fbf-43" style="edgeStyle=none;curved=1;html=1;endArrow=none;endFill=0;strokeColor=#0066CC;strokeWidth=2;fontSize=24;" parent="1" source="2a5a01dd2e413fbf-11" target="2a5a01dd2e413fbf-13" edge="1">
          <mxGeometry relative="1" as="geometry">
            <Array as="points">
              <mxPoint x="400" y="410" />
            </Array>
          </mxGeometry>
        </mxCell>
        <mxCell id="2a5a01dd2e413fbf-11" value="" style="whiteSpace=wrap;html=1;rounded=0;shadow=0;strokeWidth=1;fillColor=#000000;fontSize=24;align=right;strokeColor=none;" parent="1" vertex="1">
          <mxGeometry x="520" y="340" width="20" height="20" as="geometry" />
        </mxCell>
        <mxCell id="2a5a01dd2e413fbf-12" value="" style="whiteSpace=wrap;html=1;rounded=0;shadow=0;strokeWidth=1;fillColor=#000000;fontSize=24;align=right;strokeColor=none;" parent="1" vertex="1">
          <mxGeometry x="370" y="380" width="20" height="20" as="geometry" />
        </mxCell>
        <mxCell id="2a5a01dd2e413fbf-44" style="edgeStyle=none;curved=1;html=1;endArrow=none;endFill=0;strokeColor=#0066CC;strokeWidth=2;fontSize=24;" parent="1" source="2a5a01dd2e413fbf-13" target="2a5a01dd2e413fbf-15" edge="1">
          <mxGeometry relative="1" as="geometry">
            <Array as="points">
              <mxPoint x="460" y="630" />
            </Array>
          </mxGeometry>
        </mxCell>
        <mxCell id="2a5a01dd2e413fbf-13" value="" style="whiteSpace=wrap;html=1;rounded=0;shadow=0;strokeWidth=1;fillColor=#000000;fontSize=24;align=right;strokeColor=none;" parent="1" vertex="1">
          <mxGeometry x="310" y="510" width="20" height="20" as="geometry" />
        </mxCell>
        <mxCell id="2a5a01dd2e413fbf-14" value="" style="whiteSpace=wrap;html=1;rounded=0;shadow=0;strokeWidth=1;fillColor=#000000;fontSize=24;align=right;strokeColor=none;" parent="1" vertex="1">
          <mxGeometry x="360" y="740" width="20" height="20" as="geometry" />
        </mxCell>
        <mxCell id="2a5a01dd2e413fbf-34" style="edgeStyle=none;curved=1;html=1;endArrow=none;endFill=0;fontSize=24;strokeWidth=2;strokeColor=#00CC00;" parent="1" source="2a5a01dd2e413fbf-15" target="2a5a01dd2e413fbf-16" edge="1">
          <mxGeometry relative="1" as="geometry">
            <mxPoint x="550" y="970" as="targetPoint" />
            <Array as="points">
              <mxPoint x="670" y="840" />
            </Array>
          </mxGeometry>
        </mxCell>
        <mxCell id="2a5a01dd2e413fbf-35" style="edgeStyle=none;curved=1;html=1;endArrow=none;endFill=0;fontSize=24;strokeWidth=2;strokeColor=#00CC00;" parent="1" source="2a5a01dd2e413fbf-15" target="2a5a01dd2e413fbf-25" edge="1">
          <mxGeometry relative="1" as="geometry">
            <Array as="points">
              <mxPoint x="830" y="420" />
            </Array>
          </mxGeometry>
        </mxCell>
        <mxCell id="2a5a01dd2e413fbf-15" value="" style="whiteSpace=wrap;html=1;rounded=0;shadow=0;strokeWidth=1;fillColor=#000000;fontSize=24;align=right;strokeColor=none;" parent="1" vertex="1">
          <mxGeometry x="500" y="780" width="20" height="20" as="geometry" />
        </mxCell>
        <mxCell id="2a5a01dd2e413fbf-16" value="" style="whiteSpace=wrap;html=1;rounded=0;shadow=0;strokeWidth=1;fillColor=#000000;fontSize=24;align=right;strokeColor=none;" parent="1" vertex="1">
          <mxGeometry x="640" y="975" width="20" height="20" as="geometry" />
        </mxCell>
        <mxCell id="2a5a01dd2e413fbf-17" value="" style="whiteSpace=wrap;html=1;rounded=0;shadow=0;strokeWidth=1;fillColor=#000000;fontSize=24;align=right;strokeColor=none;" parent="1" vertex="1">
          <mxGeometry x="820" y="980" width="20" height="20" as="geometry" />
        </mxCell>
        <mxCell id="2a5a01dd2e413fbf-18" value="" style="whiteSpace=wrap;html=1;rounded=0;shadow=0;strokeWidth=1;fillColor=#000000;fontSize=24;align=right;strokeColor=none;" parent="1" vertex="1">
          <mxGeometry x="980" y="975" width="20" height="20" as="geometry" />
        </mxCell>
        <mxCell id="2a5a01dd2e413fbf-36" style="edgeStyle=none;curved=1;html=1;endArrow=none;endFill=0;strokeColor=#FF0000;strokeWidth=2;fontSize=24;" parent="1" source="2a5a01dd2e413fbf-19" target="2a5a01dd2e413fbf-21" edge="1">
          <mxGeometry relative="1" as="geometry">
            <mxPoint x="1530" y="720" as="targetPoint" />
            <Array as="points">
              <mxPoint x="1190" y="770" />
            </Array>
          </mxGeometry>
        </mxCell>
        <mxCell id="2a5a01dd2e413fbf-38" style="edgeStyle=none;curved=1;html=1;endArrow=none;endFill=0;strokeColor=#FF0000;strokeWidth=2;fontSize=24;" parent="1" source="2a5a01dd2e413fbf-19" target="2a5a01dd2e413fbf-18" edge="1">
          <mxGeometry relative="1" as="geometry">
            <Array as="points">
              <mxPoint x="1070" y="950" />
            </Array>
          </mxGeometry>
        </mxCell>
        <mxCell id="2a5a01dd2e413fbf-39" style="edgeStyle=none;curved=1;html=1;endArrow=none;endFill=0;strokeColor=#FF0000;strokeWidth=2;fontSize=24;" parent="1" source="2a5a01dd2e413fbf-19" target="2a5a01dd2e413fbf-11" edge="1">
          <mxGeometry relative="1" as="geometry">
            <Array as="points">
              <mxPoint x="950" y="600" />
            </Array>
          </mxGeometry>
        </mxCell>
        <mxCell id="2a5a01dd2e413fbf-19" value="" style="whiteSpace=wrap;html=1;rounded=0;shadow=0;strokeWidth=1;fillColor=#000000;fontSize=24;align=right;strokeColor=none;" parent="1" vertex="1">
          <mxGeometry x="1145" y="980" width="20" height="20" as="geometry" />
        </mxCell>
        <mxCell id="2a5a01dd2e413fbf-20" value="" style="whiteSpace=wrap;html=1;rounded=0;shadow=0;strokeWidth=1;fillColor=#000000;fontSize=24;align=right;strokeColor=none;" parent="1" vertex="1">
          <mxGeometry x="1270" y="970" width="20" height="20" as="geometry" />
        </mxCell>
        <mxCell id="2a5a01dd2e413fbf-37" style="edgeStyle=none;curved=1;html=1;endArrow=none;endFill=0;strokeColor=#FF0000;strokeWidth=2;fontSize=24;" parent="1" source="2a5a01dd2e413fbf-21" target="2a5a01dd2e413fbf-23" edge="1">
          <mxGeometry relative="1" as="geometry">
            <Array as="points">
              <mxPoint x="1380" y="540" />
            </Array>
          </mxGeometry>
        </mxCell>
        <mxCell id="2a5a01dd2e413fbf-21" value="" style="whiteSpace=wrap;html=1;rounded=0;shadow=0;strokeWidth=1;fillColor=#000000;fontSize=24;align=right;strokeColor=none;" parent="1" vertex="1">
          <mxGeometry x="1355" y="625" width="20" height="20" as="geometry" />
        </mxCell>
        <mxCell id="2a5a01dd2e413fbf-22" value="" style="whiteSpace=wrap;html=1;rounded=0;shadow=0;strokeWidth=1;fillColor=#000000;fontSize=24;align=right;strokeColor=none;" parent="1" vertex="1">
          <mxGeometry x="1230" y="565" width="20" height="20" as="geometry" />
        </mxCell>
        <mxCell id="2a5a01dd2e413fbf-40" style="edgeStyle=none;curved=1;html=1;entryX=0.5;entryY=0;endArrow=none;endFill=0;strokeColor=#0066CC;strokeWidth=2;fontSize=24;" parent="1" source="2a5a01dd2e413fbf-23" target="2a5a01dd2e413fbf-22" edge="1">
          <mxGeometry relative="1" as="geometry">
            <Array as="points">
              <mxPoint x="1240" y="520" />
            </Array>
          </mxGeometry>
        </mxCell>
        <mxCell id="2a5a01dd2e413fbf-41" style="edgeStyle=none;curved=1;html=1;endArrow=none;endFill=0;strokeColor=#0066CC;strokeWidth=2;fontSize=24;" parent="1" source="2a5a01dd2e413fbf-23" target="2a5a01dd2e413fbf-24" edge="1">
          <mxGeometry relative="1" as="geometry">
            <Array as="points">
              <mxPoint x="1340" y="460" />
            </Array>
          </mxGeometry>
        </mxCell>
        <mxCell id="2a5a01dd2e413fbf-42" style="edgeStyle=none;curved=1;html=1;endArrow=none;endFill=0;strokeColor=#0066CC;strokeWidth=2;fontSize=24;" parent="1" source="2a5a01dd2e413fbf-23" target="2a5a01dd2e413fbf-11" edge="1">
          <mxGeometry relative="1" as="geometry">
            <mxPoint x="820" y="460" as="targetPoint" />
            <Array as="points">
              <mxPoint x="940" y="340" />
            </Array>
          </mxGeometry>
        </mxCell>
        <mxCell id="2a5a01dd2e413fbf-23" value="" style="whiteSpace=wrap;html=1;rounded=0;shadow=0;strokeWidth=1;fillColor=#000000;fontSize=24;align=right;strokeColor=none;" parent="1" vertex="1">
          <mxGeometry x="1290" y="465" width="20" height="20" as="geometry" />
        </mxCell>
        <mxCell id="2a5a01dd2e413fbf-24" value="" style="whiteSpace=wrap;html=1;rounded=0;shadow=0;strokeWidth=1;fillColor=#000000;fontSize=24;align=right;strokeColor=none;" parent="1" vertex="1">
          <mxGeometry x="1375" y="465" width="20" height="20" as="geometry" />
        </mxCell>
        <mxCell id="2a5a01dd2e413fbf-25" value="" style="whiteSpace=wrap;html=1;rounded=0;shadow=0;strokeWidth=1;fillColor=#000000;fontSize=24;align=right;strokeColor=none;" parent="1" vertex="1">
          <mxGeometry x="1240" y="380" width="20" height="20" as="geometry" />
        </mxCell>
        <mxCell id="2a5a01dd2e413fbf-26" value="" style="whiteSpace=wrap;html=1;rounded=0;shadow=0;strokeWidth=1;fillColor=#000000;fontSize=24;align=right;strokeColor=none;" parent="1" vertex="1">
          <mxGeometry x="1355" y="310" width="20" height="20" as="geometry" />
        </mxCell>
        <mxCell id="2a5a01dd2e413fbf-27" value="" style="whiteSpace=wrap;html=1;rounded=0;shadow=0;strokeWidth=1;fillColor=#000000;fontSize=24;align=right;strokeColor=none;" parent="1" vertex="1">
          <mxGeometry x="1090" y="475" width="20" height="20" as="geometry" />
        </mxCell>
        <mxCell id="2a5a01dd2e413fbf-29" value="" style="curved=1;endArrow=none;html=1;fontSize=24;fontColor=#000000;endFill=0;strokeWidth=2;strokeColor=#00CC00;" parent="1" source="2a5a01dd2e413fbf-11" target="2a5a01dd2e413fbf-15" edge="1">
          <mxGeometry width="50" height="50" relative="1" as="geometry">
            <mxPoint x="730" y="650" as="sourcePoint" />
            <mxPoint x="850" y="440" as="targetPoint" />
            <Array as="points">
              <mxPoint x="580" y="430" />
              <mxPoint x="580" y="690" />
            </Array>
          </mxGeometry>
        </mxCell>
        <mxCell id="2a5a01dd2e413fbf-31" value="" style="curved=1;endArrow=none;html=1;fontSize=24;endFill=0;strokeWidth=2;strokeColor=#00CC00;" parent="1" source="2a5a01dd2e413fbf-14" target="2a5a01dd2e413fbf-15" edge="1">
          <mxGeometry width="50" height="50" relative="1" as="geometry">
            <mxPoint x="350" y="910" as="sourcePoint" />
            <mxPoint x="400" y="860" as="targetPoint" />
            <Array as="points">
              <mxPoint x="440" y="720" />
              <mxPoint x="490" y="746" />
            </Array>
          </mxGeometry>
        </mxCell>
        <mxCell id="2a5a01dd2e413fbf-47" value="A" style="text;html=1;strokeColor=none;fillColor=none;align=center;verticalAlign=middle;whiteSpace=wrap;rounded=0;shadow=0;fontSize=20;" parent="1" vertex="1">
          <mxGeometry x="480" y="220" width="80" height="30" as="geometry" />
        </mxCell>
        <mxCell id="2a5a01dd2e413fbf-48" value="B" style="text;html=1;strokeColor=none;fillColor=none;align=center;verticalAlign=middle;whiteSpace=wrap;rounded=0;shadow=0;fontSize=20;" parent="1" vertex="1">
          <mxGeometry x="110" y="560" width="80" height="30" as="geometry" />
        </mxCell>
        <mxCell id="2a5a01dd2e413fbf-49" value="C" style="text;html=1;strokeColor=none;fillColor=none;align=center;verticalAlign=middle;whiteSpace=wrap;rounded=0;shadow=0;fontSize=20;" parent="1" vertex="1">
          <mxGeometry x="460" y="860" width="80" height="30" as="geometry" />
        </mxCell>
        <mxCell id="2a5a01dd2e413fbf-50" value="D" style="text;html=1;strokeColor=none;fillColor=none;align=center;verticalAlign=middle;whiteSpace=wrap;rounded=0;shadow=0;fontSize=20;" parent="1" vertex="1">
          <mxGeometry x="720" y="850" width="80" height="30" as="geometry" />
        </mxCell>
        <mxCell id="2a5a01dd2e413fbf-51" value="E" style="text;html=1;strokeColor=none;fillColor=none;align=center;verticalAlign=middle;whiteSpace=wrap;rounded=0;shadow=0;fontSize=20;" parent="1" vertex="1">
          <mxGeometry x="877" y="860" width="80" height="30" as="geometry" />
        </mxCell>
        <mxCell id="2a5a01dd2e413fbf-52" value="F" style="text;html=1;strokeColor=none;fillColor=none;align=center;verticalAlign=middle;whiteSpace=wrap;rounded=0;shadow=0;fontSize=20;" parent="1" vertex="1">
          <mxGeometry x="1185" y="860" width="80" height="30" as="geometry" />
        </mxCell>
        <mxCell id="2a5a01dd2e413fbf-53" value="G" style="text;html=1;strokeColor=none;fillColor=none;align=center;verticalAlign=middle;whiteSpace=wrap;rounded=0;shadow=0;fontSize=20;" parent="1" vertex="1">
          <mxGeometry x="1160" y="1025" width="80" height="30" as="geometry" />
        </mxCell>
        <mxCell id="2a5a01dd2e413fbf-54" value="H" style="text;html=1;strokeColor=none;fillColor=none;align=center;verticalAlign=middle;whiteSpace=wrap;rounded=0;shadow=0;fontSize=20;" parent="1" vertex="1">
          <mxGeometry x="990" y="295" width="80" height="30" as="geometry" />
        </mxCell>
        <mxCell id="2a5a01dd2e413fbf-55" value="I" style="text;html=1;strokeColor=none;fillColor=none;align=center;verticalAlign=middle;whiteSpace=wrap;rounded=0;shadow=0;fontSize=20;" parent="1" vertex="1">
          <mxGeometry x="1325" y="130" width="80" height="30" as="geometry" />
        </mxCell>
        <mxCell id="2a5a01dd2e413fbf-56" value="J" style="text;html=1;strokeColor=none;fillColor=none;align=center;verticalAlign=middle;whiteSpace=wrap;rounded=0;shadow=0;fontSize=20;" parent="1" vertex="1">
          <mxGeometry x="1480" y="510" width="80" height="30" as="geometry" />
        </mxCell>
      </root>
    </mxGraphModel>
  </diagram>
</mxfile>
